<svg xmlns="http://www.w3.org/2000/svg" xmlns:xlink="http://www.w3.org/1999/xlink" width="1080" zoomAndPan="magnify" viewBox="0 0 810 809.999993" height="1080" preserveAspectRatio="xMidYMid meet" version="1.0"><defs><g/></defs><g fill="#ffffff" fill-opacity="1"><g transform="translate(17.923831, 372.750001)"><g><path d="M 82.109375 -113.921875 L 82.109375 -94.53125 C 82.109375 -79.382812 86.097656 -67.566406 94.078125 -59.078125 C 102.054688 -50.597656 114.023438 -46.359375 129.984375 -46.359375 C 135.234375 -46.359375 140.082031 -46.960938 144.53125 -48.171875 L 162.40625 -3.328125 C 149.070312 1.316406 134.125 3.640625 117.5625 3.640625 C 82.820312 3.640625 56.816406 -5.445312 39.546875 -23.625 C 22.273438 -41.8125 13.640625 -68.679688 13.640625 -104.234375 C 13.640625 -131.503906 19.546875 -153.722656 31.359375 -170.890625 C 43.179688 -188.054688 60.097656 -199.875 82.109375 -206.34375 Z M 127.265625 -212.09375 C 146.859375 -212.09375 164.632812 -209.164062 180.59375 -203.3125 C 196.550781 -197.457031 209.328125 -188.671875 218.921875 -176.953125 C 228.515625 -165.234375 233.3125 -150.585938 233.3125 -133.015625 L 169.375 -133.015625 C 169.375 -141.898438 165.484375 -148.96875 157.703125 -154.21875 C 149.929688 -159.476562 140.691406 -162.109375 129.984375 -162.109375 C 127.765625 -162.109375 125.59375 -162.003906 123.46875 -161.796875 C 121.351562 -161.597656 119.285156 -161.296875 117.265625 -160.890625 L 117.265625 -211.796875 C 118.878906 -211.992188 120.546875 -212.09375 122.265625 -212.09375 C 123.984375 -212.09375 125.648438 -212.09375 127.265625 -212.09375 Z M 198.765625 0 L 169.375 -73.9375 L 122.109375 -73.9375 L 122.109375 -116.359375 L 233.3125 -116.359375 L 233.3125 0 Z M 198.765625 0 "/></g></g></g><g fill="#ffffff" fill-opacity="1"><g transform="translate(270.31612, 372.750001)"><g><path d="M 100.90625 -163.625 C 119.082031 -163.625 134.9375 -160.539062 148.46875 -154.375 C 162 -148.21875 172.5 -138.925781 179.96875 -126.5 C 187.445312 -114.082031 191.1875 -98.578125 191.1875 -79.984375 C 191.1875 -61.203125 187.445312 -45.648438 179.96875 -33.328125 C 172.5 -21.003906 162 -11.757812 148.46875 -5.59375 C 134.9375 0.5625 119.082031 3.640625 100.90625 3.640625 C 96.457031 3.640625 92.210938 3.4375 88.171875 3.03125 L 88.171875 -39.390625 C 91.804688 -37.972656 96.050781 -37.265625 100.90625 -37.265625 C 111.601562 -37.265625 119.273438 -40.296875 123.921875 -46.359375 C 128.566406 -52.421875 130.890625 -60.703125 130.890625 -71.203125 L 130.890625 -88.46875 C 130.890625 -99.175781 128.566406 -107.5625 123.921875 -113.625 C 119.273438 -119.6875 111.601562 -122.71875 100.90625 -122.71875 C 96.050781 -122.71875 91.804688 -122.007812 88.171875 -120.59375 L 88.171875 -163.015625 C 92.210938 -163.421875 96.457031 -163.625 100.90625 -163.625 Z M 71.203125 0.609375 C 52.617188 -3.835938 37.921875 -12.726562 27.109375 -26.0625 C 16.304688 -39.394531 10.90625 -57.367188 10.90625 -79.984375 C 10.90625 -102.609375 16.304688 -120.585938 27.109375 -133.921875 C 37.921875 -147.253906 52.617188 -156.144531 71.203125 -160.59375 Z M 71.203125 0.609375 "/></g></g></g><g fill="#ffffff" fill-opacity="1"><g transform="translate(17.923831, 674.999986)"><g><path d="M 82.109375 -113.921875 L 82.109375 -94.53125 C 82.109375 -79.382812 86.097656 -67.566406 94.078125 -59.078125 C 102.054688 -50.597656 114.023438 -46.359375 129.984375 -46.359375 C 135.234375 -46.359375 140.082031 -46.960938 144.53125 -48.171875 L 162.40625 -3.328125 C 149.070312 1.316406 134.125 3.640625 117.5625 3.640625 C 82.820312 3.640625 56.816406 -5.445312 39.546875 -23.625 C 22.273438 -41.8125 13.640625 -68.679688 13.640625 -104.234375 C 13.640625 -131.503906 19.546875 -153.722656 31.359375 -170.890625 C 43.179688 -188.054688 60.097656 -199.875 82.109375 -206.34375 Z M 127.265625 -212.09375 C 146.859375 -212.09375 164.632812 -209.164062 180.59375 -203.3125 C 196.550781 -197.457031 209.328125 -188.671875 218.921875 -176.953125 C 228.515625 -165.234375 233.3125 -150.585938 233.3125 -133.015625 L 169.375 -133.015625 C 169.375 -141.898438 165.484375 -148.96875 157.703125 -154.21875 C 149.929688 -159.476562 140.691406 -162.109375 129.984375 -162.109375 C 127.765625 -162.109375 125.59375 -162.003906 123.46875 -161.796875 C 121.351562 -161.597656 119.285156 -161.296875 117.265625 -160.890625 L 117.265625 -211.796875 C 118.878906 -211.992188 120.546875 -212.09375 122.265625 -212.09375 C 123.984375 -212.09375 125.648438 -212.09375 127.265625 -212.09375 Z M 198.765625 0 L 169.375 -73.9375 L 122.109375 -73.9375 L 122.109375 -116.359375 L 233.3125 -116.359375 L 233.3125 0 Z M 198.765625 0 "/></g></g></g><g fill="#ffffff" fill-opacity="1"><g transform="translate(270.31612, 674.999986)"><g><path d="M 152.109375 -81.203125 L 151.796875 -80.90625 L 151.796875 0 L 84.84375 0 L 84.84375 -80.90625 L 2.125 -208.46875 L 79.078125 -208.46875 Z M 170.59375 -110.296875 L 137.265625 -168.46875 L 160.28125 -208.46875 L 233.3125 -208.46875 Z M 170.59375 -110.296875 "/></g></g></g><g fill="#ffffff" fill-opacity="1"><g transform="translate(506.043891, 674.999986)"><g><path d="M 267.859375 -208.46875 L 267.859375 0 L 201.5 0 L 201.5 -75.140625 C 201.5 -83.023438 201.75 -90.851562 202.25 -98.625 C 202.757812 -106.40625 203.316406 -113.523438 203.921875 -119.984375 C 204.523438 -126.453125 205.078125 -131.601562 205.578125 -135.4375 C 206.085938 -139.28125 206.34375 -141.203125 206.34375 -141.203125 L 205.125 -141.203125 L 166.65625 0 L 114.234375 0 L 75.453125 -140.890625 L 74.234375 -140.890625 C 74.234375 -140.890625 74.6875 -137.609375 75.59375 -131.046875 C 76.507812 -124.484375 77.421875 -116.148438 78.328125 -106.046875 C 79.234375 -95.953125 79.6875 -85.648438 79.6875 -75.140625 L 79.6875 0 L 18.1875 0 L 18.1875 -208.46875 L 112.71875 -208.46875 L 144.234375 -88.171875 L 145.4375 -88.171875 L 176.65625 -208.46875 Z M 267.859375 -208.46875 "/></g></g></g></svg>